<?xml version="1.0"?>
<svg xmlns="http://www.w3.org/2000/svg" viewBox="0 0 64 64" width="512" height="512"><g id="Web_crawler" data-name="Web crawler"><path d="M59,2H5A3,3,0,0,0,2,5V51a3,3,0,0,0,3,3H15a1,1,0,0,0,0-2H5a1,1,0,0,1-1-1V14H60V51a1,1,0,0,1-1,1H49a1,1,0,0,0,0,2H59a3,3,0,0,0,3-3V5A3,3,0,0,0,59,2ZM4,12V5A1,1,0,0,1,5,4H59a1,1,0,0,1,1,1v7Z"/><path d="M55,5H27a3,3,0,0,0,0,6H55a3,3,0,0,0,0-6Zm0,4H27a1,1,0,0,1,0-2H55a1,1,0,0,1,0,2Z"/><circle cx="8" cy="8" r="2"/><circle cx="14" cy="8" r="2"/><circle cx="20" cy="8" r="2"/><path d="M47.707,46.293l-4-4a1,1,0,0,0-1.079-.222l-4.267,1.707a11.47,11.47,0,0,0-.655-1.626l4.771-2.863a1,1,0,0,0,.47-1.032l-.962-5.431a1,1,0,0,0-1.97.348l.842,4.754-4.221,2.533a7.2,7.2,0,0,0-1.616-1.5,4.943,4.943,0,0,0,.627-7.354A3.919,3.919,0,0,0,36,30a4,4,0,0,0-1.016-2.667,1,1,0,1,0-1.491,1.334,1.774,1.774,0,0,1,.443,1.724,4.988,4.988,0,0,0-3.872,0,1.774,1.774,0,0,1,.443-1.724,1,1,0,1,0-1.491-1.334A4,4,0,0,0,28,30a3.919,3.919,0,0,0,.353,1.6,4.943,4.943,0,0,0,.627,7.354,7.2,7.2,0,0,0-1.616,1.5l-4.221-2.533.842-4.754a1,1,0,0,0-1.97-.348l-.962,5.431a1,1,0,0,0,.47,1.032l4.771,2.863a11.47,11.47,0,0,0-.655,1.626l-4.267-1.707a1,1,0,0,0-1.079.222l-4,4a1,1,0,1,0,1.414,1.414l3.534-3.534,3.936,1.575A14.686,14.686,0,0,0,25,48c0,.266.013.526.027.786L21.2,48.02a1,1,0,0,0-1.053.465l-3,5a1,1,0,1,0,1.714,1.03l2.638-4.4,3.792.758a12.831,12.831,0,0,0,.424,1.561l-4.083,1.633a1,1,0,0,0-.614,1.094l1,6A1,1,0,0,0,23,62a.946.946,0,0,0,.166-.014,1,1,0,0,0,.821-1.151l-.867-5.206,3.395-1.358C27.787,56.556,29.752,58,32,58s4.213-1.444,5.486-3.729l3.4,1.358-.867,5.206a1,1,0,0,0,.821,1.151A.946.946,0,0,0,41,62a1,1,0,0,0,.985-.835l1-6a1,1,0,0,0-.614-1.094l-4.083-1.633a12.831,12.831,0,0,0,.424-1.561l3.792-.758,2.638,4.4a1,1,0,0,0,1.714-1.03l-3-5A1,1,0,0,0,42.8,48.02l-3.831.766c.014-.26.027-.52.027-.786a14.686,14.686,0,0,0-.177-2.252l3.936-1.575,3.534,3.534a1,1,0,0,0,1.414-1.414ZM29,35a3,3,0,1,1,3,3A3,3,0,0,1,29,35ZM27,48c0-3.79,1.749-7.066,4-7.831V55.831C28.749,55.066,27,51.79,27,48Zm6,7.831V40.169c2.251.765,4,4.041,4,7.831S35.251,55.066,33,55.831Z"/><path d="M11,18H9a1,1,0,0,0,0,2h2a1,1,0,0,0,0-2Z"/><path d="M15,20H55a1,1,0,0,0,0-2H15a1,1,0,0,0,0,2Z"/><path d="M11,22H9a1,1,0,0,0,0,2h2a1,1,0,0,0,0-2Z"/><path d="M15,24H55a1,1,0,0,0,0-2H15a1,1,0,0,0,0,2Z"/><path d="M11,26H9a1,1,0,0,0,0,2h2a1,1,0,0,0,0-2Z"/><path d="M15,28H25a1,1,0,0,0,0-2H15a1,1,0,0,0,0,2Z"/><path d="M11,30H9a1,1,0,0,0,0,2h2a1,1,0,0,0,0-2Z"/><path d="M15,32h4a1,1,0,0,0,0-2H15a1,1,0,0,0,0,2Z"/><path d="M11,34H9a1,1,0,0,0,0,2h2a1,1,0,0,0,0-2Z"/><path d="M15,36h4a1,1,0,0,0,0-2H15a1,1,0,0,0,0,2Z"/><path d="M55,26H39a1,1,0,0,0,0,2H55a1,1,0,0,0,0-2Z"/><path d="M55,30H45a1,1,0,0,0,0,2H55a1,1,0,0,0,0-2Z"/><path d="M55,34H45a1,1,0,0,0,0,2H55a1,1,0,0,0,0-2Z"/></g></svg>
